<?xml version="1.0" encoding="UTF-8"?>
<!-- Created with Inkscape (http://www.inkscape.org/) -->
<svg width="602.39mm" height="592.18mm" version="1.1" viewBox="0 0 602.39 592.18" xml:space="preserve" xmlns="http://www.w3.org/2000/svg"><g transform="translate(98.16 161.73)"><g transform="translate(96.507 42.21)" fill="#aab900ff" stroke="#000" stroke-width="1.5"><path d="m167.75 177.28-4e-3 -65.003-61.763 20 4e-3 65.003 61.821-20.091"/><path d="m67.77 79.696 38.211 52.586 38.212-52.484-38.211-52.586-38.205 52.592"/><path d="m44.098 177.23 61.823 20.083 0.0647-64.921-61.823-20.083 4e-3 65.004"/><path d="m206.88 295.35-4e-3 -65.003-61.764 20 4e-3 65.003 61.821-20.091"/><path d="m168.8 177.61-61.82 20.091 38.107 52.56 61.82-20.091-38.212-52.587"/><path d="m206.01 59.602-61.821 20.091-38.208 52.589 61.821-20.091z"/><path d="m306.93-12.795-61.821 20.091-38.208 52.589 61.821-20.091z"/><path d="m5.9568 59.712 61.821 20.091 38.208 52.589-61.821-20.091z"/><path d="m105.89 197.26 4e-3 65.004 38.208 52.589-4e-3 -65.003z"/><path d="m105.99 197.4-4e-3 65.004-38.208 52.589 0.0039-65.004z"/><path d="m268.82-65.36-61.82 20.091 38.107 52.56 61.82-20.091-38.212-52.587"/><path d="m206.95-110.39 4e-3 65.003 61.763-20-4e-3 -65.003-61.821 20.091"/><path d="m-55.843-65.784 61.823 20.083 0.0647-64.921-61.823-20.084 4e-3 65.004"/><path d="m306.86-12.88 61.823 20.083 0.0647-64.921-61.823-20.083 4e-3 65.004"/><path d="m330.45 59.917 38.205-52.591-61.724-20.123-38.205 52.591 61.824 20.084"/><path d="m406.97 59.979-38.211-52.586-38.212 52.484 38.211 52.586 38.205-52.592"/><path d="m330.5 295.26-4e-3 -65.003-61.764 20 4e-3 65.003 61.821-20.091"/><path d="m144.09 79.771 61.82-20.091-38.107-52.56-61.82 20.091 38.212 52.587"/><path d="m44.252 6.9813-38.205 52.591 61.724 20.123 38.205-52.591-61.824-20.084"/><path d="m67.686 250.03 38.205-52.591-61.724-20.123-38.205 52.591 61.824 20.083"/><path d="m268.74 250.26-61.823-20.083-0.0647 64.921 61.823 20.083-4e-3 -65.004"/><path d="m330.56 295.17 38.205-52.591v-65.003l-38.205 52.591z"/><path d="m306.93-12.798-4e-3 -65.003-38.208-52.589 4e-3 65.003z"/><path d="m406.97 59.979-38.205 52.591 2e-5 65.003 38.205-52.591z"/><path d="m-117.45 294.87 4e-3 -65.003 61.764 20-4e-3 65.003-61.821-20.091"/><path d="m-55.75 249.95 61.823-20.083 0.06472 64.921-61.823 20.083 0.0041-65.004"/><path d="m-155.77-57.915 61.823-20.083 0.0647 64.921-61.823 20.083 4e-3 -65.004"/><path d="m-155.71 177.19-38.205-52.591v-65.003l38.205 52.591z"/><path d="m-117.51 294.78-38.205-52.591v-65.003l38.205 52.591z"/><path d="m6.0436 59.564-61.821-20.091-38.208-52.589 61.821 20.091z"/><path d="m-93.982-13.117 38.205 52.591-61.724 20.123-38.205-52.591 61.824-20.084"/><path d="m44.259 6.8738-38.211 52.586-38.212-52.484 38.211-52.586 38.205 52.592"/><path d="m-32.061 6.9501-61.82-20.091 38.107-52.56 61.82 20.091-38.212 52.587"/><path d="m167.71 387.53-61.82-20.091 38.107-52.56 61.82 20.091-38.212 52.587"/><path d="m67.675 314.95 38.211-52.586 38.212 52.484-38.211 52.586-38.205-52.592"/><path d="m168.69 7.3936 38.211-52.586 38.212 52.484-38.211 52.586-38.205-52.592"/><path d="m-193.92 59.699 38.211-52.586 38.212 52.484-38.211 52.586-38.205-52.592"/><path d="m67.889 250.08-0.0041 65.003-61.763-20 0.0037-65.003 61.821 20.091"/><path d="m144.13 315.21 61.823-20.083 61.822 20.087-61.823 20.083z"/><path d="m44.066 387.53 61.82-20.091-38.107-52.56-61.82 20.091 38.212 52.587"/><path d="m67.641 315.21-61.823-20.083-61.822 20.087 61.823 20.083z"/><path d="m-55.77-130.7-4e-3 65.004-38.208 52.589 4e-3 -65.003z"/><g transform="rotate(252 170.84 -233.53)"><path d="m180.8-427.51-38.211-52.586-38.212 52.484 38.211 52.586 38.205-52.592"/><path d="m104.34-192.23-4e-3 -65.003-61.764 20 4e-3 65.003 61.821-20.091"/><path d="m104.39-192.32 38.205-52.591v-65.003l-38.205 52.591z"/><path d="m180.8-427.51-38.205 52.591 2e-5 65.003 38.205-52.591z"/></g></g></g></svg>
