<?xml version="1.0" encoding="UTF-8"?>
<!-- Created with Inkscape (http://www.inkscape.org/) -->
<svg width="210mm" height="297mm" version="1.1" viewBox="0 0 210 297" xml:space="preserve" xmlns="http://www.w3.org/2000/svg"><g transform="translate(42.581 -32.824)" stroke="#000" stroke-width="1.5"><g fill="#053966ff"><path d="m97.856 89.142-38.205 52.591 61.723 20.123 38.205-52.591-61.824-20.083"/><path d="m-2.211 161.77 4e-3 65.003 61.763-20-4e-3 -65.003-61.821 20.091"/><path d="m59.557 206.78 61.823 20.083 0.0647-64.921-61.823-20.083 4e-3 65.004"/><path d="m21.333 89.079 38.211 52.586 38.212-52.484-38.211-52.586-38.205 52.592"/><path d="m-2.3731 161.84 61.82-20.091-38.107-52.56-61.82 20.091 38.212 52.587"/></g><g fill="#008000"><path d="m159.58 109.26-38.205 52.591v65.003l38.205-52.591z"/><path d="m121.45 226.94-61.823-20.083-61.822 20.087 61.823 20.083z"/><path d="m59.645 36.555 38.211 52.587 61.822 20.087-38.211-52.587z"/><path d="m-40.581 109.25 4e-3 65.003 38.208 52.589-4e-3 -65.003z"/><path d="m-40.481 109.28 61.821-20.091 38.208-52.589-61.821 20.091z"/></g></g></svg>
