<?xml version="1.0" encoding="UTF-8"?>
<!-- Created with Inkscape (http://www.inkscape.org/) -->
<svg width="402.55mm" height="382.85mm" version="1.1" viewBox="0 0 402.55 382.85" xml:space="preserve" xmlns="http://www.w3.org/2000/svg"><g transform="translate(111.34 267.38)"><g fill="#aab900ff" stroke="#000" stroke-width="1.5"><g transform="translate(-1.0228 -436.39)"><path d="m129.25 222.83-38.205 52.591 61.723 20.123 38.205-52.591-61.824-20.083"/><path d="m52.731 222.77 38.211 52.586 38.212-52.484-38.211-52.586-38.205 52.592"/><path d="m29.025 295.53 61.82-20.091-38.107-52.56-61.82 20.091 38.212 52.587"/></g><g transform="rotate(72 390.77 161.74)"><path d="m129.25 222.83-38.205 52.591 61.723 20.123 38.205-52.591-61.824-20.083"/><path d="m52.731 222.77 38.211 52.586 38.212-52.484-38.211-52.586-38.205 52.592"/><path d="m29.025 295.53 61.82-20.091-38.107-52.56-61.82 20.091 38.212 52.587"/></g><g transform="rotate(144 161.34 162.28)"><path d="m129.25 222.83-38.205 52.591 61.723 20.123 38.205-52.591-61.824-20.083"/><path d="m52.731 222.77 38.211 52.586 38.212-52.484-38.211-52.586-38.205 52.592"/><path d="m29.025 295.53 61.82-20.091-38.107-52.56-61.82 20.091 38.212 52.587"/></g><g transform="rotate(216 19.549 162.61)"><path d="m129.25 222.83-38.205 52.591 61.723 20.123 38.205-52.591-61.824-20.083"/><path d="m52.731 222.77 38.211 52.586 38.212-52.484-38.211-52.586-38.205 52.592"/><path d="m29.025 295.53 61.82-20.091-38.107-52.56-61.82 20.091 38.212 52.587"/></g><g transform="rotate(-72 -209.88 163.15)"><path d="m129.25 222.83-38.205 52.591 61.723 20.123 38.205-52.591-61.824-20.083"/><path d="m52.731 222.77 38.211 52.586 38.212-52.484-38.211-52.586-38.205 52.592"/><path d="m29.025 295.53 61.82-20.091-38.107-52.56-61.82 20.091 38.212 52.587"/></g></g></g></svg>
