<?xml version="1.0" encoding="UTF-8"?>
<!-- Created with Inkscape (http://www.inkscape.org/) -->
<svg width="278.26mm" height="382.65mm" version="1.1" viewBox="0 0 278.26 382.65" xml:space="preserve" xmlns="http://www.w3.org/2000/svg"><g transform="translate(45.09 -7.3544)"><g fill="#aab900ff" stroke="#000" stroke-width="1.5"><g transform="translate(3.0558 -161.66)"><path d="m129.25 222.83-38.205 52.591 61.723 20.123 38.205-52.591-61.824-20.083"/><path d="m52.731 222.77 38.211 52.586 38.212-52.484-38.211-52.586-38.205 52.592"/><path d="m29.025 295.53 61.82-20.091-38.107-52.56-61.82 20.091 38.212 52.587"/></g><path d="m232.24 133.78-38.205 52.591v65.003l38.205-52.591z"/><path d="m-44.339 133.77 4e-3 65.003 38.208 52.589-4e-3 -65.003z"/><path d="m194.03 251.37-38.205 52.591v65.003l38.205-52.591z"/><path d="m-5.8981 251.38 4e-3 65.003 38.208 52.589-4e-3 -65.003z"/><path d="m94.064 323.97 4e-3 65.003 61.763-20-4e-3 -65.003-61.821 20.091"/><path d="m155.82 133.78 38.211 52.586 38.212-52.484-38.211-52.586-38.205 52.592"/><path d="m-44.343 133.77 38.211 52.586 38.212-52.484-38.211-52.586-38.205 52.592"/><path d="m32.245 368.89 61.823 20.083 0.0647-64.921-61.823-20.083 4e-3 65.004"/></g></g></svg>
