<?xml version="1.0" encoding="UTF-8"?>
<!-- Created with Inkscape (http://www.inkscape.org/) -->
<svg width="340.27mm" height="382.95mm" version="1.1" viewBox="0 0 340.27 382.95" xml:space="preserve" xmlns="http://www.w3.org/2000/svg"><g transform="translate(46.127 -31.805)"><g fill="#aab900ff" stroke="#000" stroke-width="1.5"><g transform="translate(1.9139 -137.2)"><path d="m129.25 222.83-38.205 52.591 61.723 20.123 38.205-52.591-61.824-20.083"/><path d="m52.731 222.77 38.211 52.586 38.212-52.484-38.211-52.586-38.205 52.592"/><path d="m29.025 295.53 61.82-20.091-38.107-52.56-61.82 20.091 38.212 52.587"/></g><g transform="rotate(72 186.27 313.41)"><path d="m129.25 222.83-38.205 52.591 61.723 20.123 38.205-52.591-61.824-20.083"/><path d="m52.731 222.77 38.211 52.586 38.212-52.484-38.211-52.586-38.205 52.592"/><path d="m29.025 295.53 61.82-20.091-38.107-52.56-61.82 20.091 38.212 52.587"/></g><g transform="rotate(144 114.19 312.4)"><path d="m129.25 222.83-38.205 52.591 61.723 20.123 38.205-52.591-61.824-20.083"/><path d="m52.731 222.77 38.211 52.586 38.212-52.484-38.211-52.586-38.205 52.592"/><path d="m29.025 295.53 61.82-20.091-38.107-52.56-61.82 20.091 38.212 52.587"/></g><path d="m-45.38 158.25 38.211 52.586 38.212-52.484-38.211-52.586-38.205 52.592"/><path d="m92.885 348.72-61.823-20.083-0.0647 64.921 61.823 20.083-0.0041-65.004"/><path d="m-7.2146 275.97 0.0039 65.003 38.208 52.589-0.0039-65.003z"/><path d="m-7.1651 275.84-4e-3 -65.003-38.208-52.589 4e-3 65.003z"/></g></g></svg>
