<?xml version="1.0" encoding="UTF-8"?>
<!-- Created with Inkscape (http://www.inkscape.org/) -->
<svg width="1246.1mm" height="1311mm" version="1.1" viewBox="0 0 1246.1 1311" xml:space="preserve" xmlns="http://www.w3.org/2000/svg"><g transform="translate(2216.9 3956.4)" stroke="#000" stroke-width="1.5"><g transform="translate(-4389.9 -2557.6)"><g fill="#aab900"><path d="m2572.3-540.2v-65.003l-38.208-52.589v65.003z"/><path d="m2795.7-702.5-38.208-52.589-61.822-20.087 38.208 52.589z"/><path d="m2795.7-702.49 61.821-20.091 38.205-52.591-61.821 20.091z"/><path d="m2795.8-1017.8-61.822-20.087-61.822 20.087 61.822 20.087z"/><path d="m3019.2-540.03 38.205-52.591v-65.003l-38.205 52.591z"/><path d="m2695.7-775.1-38.208-52.589-61.822-20.087 38.208 52.589z"/><path d="m2895.5-775.02 61.821-20.091 38.205-52.591-61.821 20.091z"/><path d="m2919-1017.9-61.822-20.087-61.822 20.087 61.822 20.087z"/><path d="m2533.9-657.7v-65.003l-38.208-52.589v65.003z"/><path d="m2757.7-520.11-61.822-20.087-61.822 20.087 61.822 20.087z"/><path d="m2957.4-519.94-61.822-20.087-61.822 20.087 61.822 20.087z"/><path d="m2995.6-847.66v-65.003l-38.208-52.589v65.003z"/><path d="m3057.4-657.51 38.205-52.591v-65.003l-38.205 52.591z"/><path d="m2757.7-520.03 38.205-52.591v-65.003l-38.205 52.591z"/><path d="m2833.9-520.03v-65.003l-38.208-52.589v65.003z"/><path d="m2595.7-847.66 38.205-52.591v-65.003l-38.205 52.591z"/><path d="m2733.9-657.67 61.823 20.083 0.065-64.921-61.823-20.083v65.004"/><path d="m2795.8-702.59v65.003l61.763-20v-65.003l-61.821 20.091"/><path d="m2572.2-540.28 61.823 20.083 0.065-64.921-61.823-20.083v65.004"/><path d="m2895.5-945.09 61.822-20.087-38.107-52.56-61.822 20.087 38.208 52.589"/><path d="m3019.2-540.03v-65.003l-61.764 20v65.003l61.822-20.087"/><path d="m2672.3-1017.8-38.205 52.591 61.724 20.123 38.205-52.591-61.824-20.083"/><path d="m2833.9-754.98-38.208-52.589-38.212 52.484 38.208 52.589 38.208-52.589"/><path d="m2757.4-754.97 38.208-52.589-61.723-20.124-38.208 52.589 61.822 20.087"/><path d="m2833.9-754.97-38.208-52.589 61.723-20.123 38.208 52.589-61.822 20.087"/><path d="m2595.8-847.87-61.822 20.087 38.107 52.56 61.822-20.087-38.208-52.589"/><path d="m2572.1-775.19-38.208-52.589-38.212 52.484 38.208 52.589 38.208-52.589"/><path d="m2595.8-847.86-61.822 20.087-0.065-64.921 61.822-20.087 1e-4 65.004"/><path d="m2757.7-585.03-61.822-20.087-0.065 64.921 61.822 20.087-1e-4 -65.004"/><path d="m2695.8-540.11v-65.003l-61.764 20v65.003l61.822-20.087"/><path d="m2757.7-585.02-61.822-20.087 38.107-52.56 61.822 20.087-38.208 52.589"/><path d="m2757.6-520.06 38.211 52.586 38.212-52.484-38.211-52.586-38.205 52.592"/><path d="m2834-520.07-38.205 52.591 61.724 20.123 38.205-52.591-61.824-20.084"/><path d="m2757.6-520.07 38.205 52.591-61.723 20.123-38.205-52.591 61.824-20.084"/><path d="m2957.4-900.26-61.822 20.087 38.107 52.56 61.822-20.087-38.208-52.589"/><path d="m2933.8-827.58-38.208-52.589-38.212 52.484 38.208 52.589 38.208-52.589"/><path d="m2957.4-900.25-61.822 20.087-0.065-64.921 61.822-20.087-1e-4 65.004"/><path d="m2657.5-827.58 38.205-52.591-61.723-20.123-38.205 52.591 61.822 20.087"/><path d="m2633.9-900.25 61.822 20.087 0.065-64.921-61.822-20.087v65.004"/><path d="m2657.5-827.58 38.211-52.586 38.212 52.484-38.211 52.586-38.208-52.589"/><path d="m3019.2-774.99 38.205-52.591-61.723-20.123-38.205 52.591 61.822 20.087"/><path d="m2995.6-847.66 61.822 20.087 0.065-64.921-61.822-20.087v65.004"/><path d="m3019.2-774.99 38.211-52.586 38.212 52.484-38.211 52.586-38.208-52.589"/><path d="m2895.6-540.03v-65.003l-61.764 20v65.003l61.822-20.087"/><path d="m2833.8-584.94 61.822-20.087-38.107-52.56-61.822 20.087 38.208 52.589"/><path d="m2895.6-540.03v-65.003l61.764 20v65.003l-61.822-20.087"/></g><g transform="translate(932.63 426.38)"><g fill="#30860b"><path d="m1963.3-1371.5-38.205 52.591v65.003l38.205-52.591z"/><path d="m1863.4-1444.1-61.821 20.091-38.208 52.589 61.821-20.091z"/><path d="m1925.2-1253.8-61.823-20.083-61.822 20.087 61.823 20.083z"/><path d="m1963.2-1371.5-38.211-52.587-61.822-20.087 38.211 52.586z"/></g><g fill="#053966"><path d="m1825.1-1391.6 38.211 52.586 38.212-52.484-38.211-52.586-38.205 52.592"/><path d="m1901.5-1391.6-38.205 52.591 61.724 20.123 38.205-52.591-61.824-20.084"/><path d="m1925.1-1318.9-61.822-20.087-0.065 64.921 61.822 20.087v-65.004"/><path d="m1863.2-1274v-65.003l-61.764 20v65.003l61.822-20.087"/><path d="m1825.1-1391.6 38.205 52.591-61.724 20.123-38.205-52.591 61.824-20.084"/></g><path d="m1763.3-1371.6v65.003l38.208 52.589v-65.003z" fill="#30860b"/></g><g transform="translate(770.72 648.96)"><g fill="#30860b"><path d="m1963.3-1371.5-38.205 52.591v65.003l38.205-52.591z"/><path d="m1863.4-1444.1-61.821 20.091-38.208 52.589 61.821-20.091z"/><path d="m1925.2-1253.8-61.823-20.083-61.822 20.087 61.823 20.083z"/><path d="m1963.2-1371.5-38.211-52.587-61.822-20.087 38.211 52.586z"/></g><g fill="#053966"><path d="m1825.1-1391.6 38.211 52.586 38.212-52.484-38.211-52.586-38.205 52.592"/><path d="m1901.5-1391.6-38.205 52.591 61.724 20.123 38.205-52.591-61.824-20.084"/><path d="m1925.1-1318.9-61.822-20.087-0.065 64.921 61.822 20.087v-65.004"/><path d="m1863.2-1274v-65.003l-61.764 20v65.003l61.822-20.087"/><path d="m1825.1-1391.6 38.205 52.591-61.724 20.123-38.205-52.591 61.824-20.084"/></g><path d="m1763.3-1371.6v65.003l38.208 52.589v-65.003z" fill="#30860b"/></g><g transform="translate(1094.3 648.98)"><g fill="#30860b"><path d="m1963.3-1371.5-38.205 52.591v65.003l38.205-52.591z"/><path d="m1863.4-1444.1-61.821 20.091-38.208 52.589 61.821-20.091z"/><path d="m1925.2-1253.8-61.823-20.083-61.822 20.087 61.823 20.083z"/><path d="m1963.2-1371.5-38.211-52.587-61.822-20.087 38.211 52.586z"/></g><g fill="#053966"><path d="m1825.1-1391.6 38.211 52.586 38.212-52.484-38.211-52.586-38.205 52.592"/><path d="m1901.5-1391.6-38.205 52.591 61.724 20.123 38.205-52.591-61.824-20.084"/><path d="m1925.1-1318.9-61.822-20.087-0.065 64.921 61.822 20.087v-65.004"/><path d="m1863.2-1274v-65.003l-61.764 20v65.003l61.822-20.087"/><path d="m1825.1-1391.6 38.205 52.591-61.724 20.123-38.205-52.591 61.824-20.084"/></g><path d="m1763.3-1371.6v65.003l38.208 52.589v-65.003z" fill="#30860b"/></g></g><g transform="rotate(144 -1567.2 -2560.3)"><g transform="translate(-3842.2 -485.83)" fill="#30860b"><path d="m1799.8-1755.6v-65.004l-38.208-52.589v65.004z"/><path d="m1761.7-1872.9v-65.004l-38.208-52.589v65.004z"/><path d="m1899.8-2063.2-38.211 52.586-38.212-52.484 38.211-52.586 38.205 52.592"/><path d="m1823.4-2063.2 38.205 52.591-61.724 20.123-38.205-52.591 61.824-20.084"/><path d="m1899.8-2063.2-38.205 52.591 61.724 20.123 38.205-52.591-61.824-20.084"/><path d="m2023.3-1918-61.82-20.091 38.107-52.56 61.82 20.091-38.208 52.589"/><path d="m1999.7-1990.6-38.208 52.589-38.212-52.484 38.208-52.589 38.205 52.592"/><path d="m2023.3-1918-61.823-20.083-0.065 64.921 61.823 20.083v-65.004"/><path d="m1923.3-1755.6v-65.003l61.763 20v65.003l-61.822-20.087"/><path d="m1985.2-1800.5-61.822-20.087 38.107-52.56 61.822 20.087-38.208 52.589"/><path d="m1923.3-1755.6v-65.003l-61.764 20v65.003l61.822-20.087"/><path d="m1799.9-1990.6-38.208 52.589-38.212-52.484 38.208-52.589 38.205 52.592"/><path d="m1799.8-1755.6-1e-4 -65.003 61.764 20v65.003l-61.822-20.087"/><path d="m1861.5-1735.5 61.822 20.087 61.822-20.087-61.822-20.087z"/></g><g transform="translate(2375.3 449.06)" stroke="#000" stroke-width="1.5"><g fill="#053966"><path d="m-4256.1-2873-38.205 52.591v65.003l38.205-52.591z"/><path d="m-4356-2945.7-61.821 20.091-38.208 52.589 61.821-20.091z"/><path d="m-4294.3-2755.4-61.823-20.083-61.822 20.087 61.823 20.083z"/><path d="m-4256.2-2873-38.211-52.587-61.822-20.087 38.211 52.586z"/></g><g fill="#30860b"><path d="m-4394.3-2893.1 38.211 52.586 38.212-52.484-38.211-52.586-38.205 52.592"/><path d="m-4317.9-2893.1-38.205 52.591 61.724 20.123 38.205-52.591-61.824-20.084"/><path d="m-4294.3-2820.4-61.822-20.087-0.065 64.921 61.822 20.087v-65.004"/><path d="m-4356.1-2775.5v-65.003l-61.764 20v65.003l61.822-20.087"/><path d="m-4394.3-2893.1 38.205 52.591-61.724 20.123-38.205-52.591 61.824-20.084"/></g><path d="m-4456.1-2873.1v65.003l38.208 52.589v-65.003z" fill="#053966"/></g></g><g transform="translate(-51.106 -550.25)"><g transform="rotate(180 -84.591 -1294.5)" fill="#30860b"><path d="m1373.2-179.05 61.823-20.083 0.065 64.921-61.823 20.083v-65.004"/><path d="m1373.3-179.03-61.823-20.083-0.065 64.921 61.823 20.083v-65.004"/><path d="m1473.3-251.77-38.205 52.591v65.003l38.205-52.591z"/><path d="m1273.4-251.77 38.205 52.591v65.003l-38.205-52.591z"/><path d="m1511.5-369.36-38.205 52.591v65.003l38.205-52.591z"/><path d="m1235.2-369.35 38.205 52.591v65.003l-38.205-52.591z"/><path d="m1335.1-441.96 38.211 52.586 38.212-52.484-38.211-52.586-38.205 52.592"/><path d="m1411.6-441.96-38.205 52.591 61.724 20.123 38.205-52.591-61.824-20.084"/><path d="m1335.1-441.96 38.205 52.591-61.724 20.123-38.205-52.591 61.824-20.084"/><path d="m1435.1-369.36 38.211 52.586 38.212-52.484-38.211-52.586-38.205 52.592"/><path d="m1235.2-369.35 38.211 52.586 38.212-52.484-38.211-52.586-38.205 52.592"/></g><g transform="translate(2965.9 104.03)"><g fill="#053966"><path d="m-4408.5-2441.2-38.205 52.591v65.003l38.205-52.591z"/><path d="m-4508.4-2513.9-61.821 20.091-38.208 52.589 61.821-20.091z"/><path d="m-4446.7-2323.6-61.823-20.083-61.822 20.087 61.823 20.083z"/><path d="m-4408.6-2441.2-38.211-52.587-61.822-20.087 38.211 52.586z"/></g><g fill="#30860b"><path d="m-4546.7-2461.3 38.211 52.586 38.212-52.484-38.211-52.586-38.205 52.592"/><path d="m-4470.3-2461.3-38.205 52.591 61.724 20.123 38.205-52.591-61.824-20.084"/><path d="m-4446.7-2388.6-61.822-20.087-0.065 64.921 61.822 20.087v-65.004"/><path d="m-4508.5-2343.7v-65.003l-61.764 20v65.003l61.822-20.087"/><path d="m-4546.7-2461.3 38.205 52.591-61.724 20.123-38.205-52.591 61.824-20.084"/></g><path d="m-4608.5-2441.3v65.003l38.208 52.589v-65.003z" fill="#053966"/></g></g><g transform="rotate(-36 -1584.2 -2583.9)"><g transform="translate(800.41 -2532.1)" fill="#30860b"><path d="m-1747.7-435.31 38.211 52.586 38.212-52.484-38.211-52.586-38.205 52.592"/><path d="m-1671.3-435.31-38.205 52.591 61.724 20.123 38.205-52.591-61.824-20.084"/><path d="m-1747.7-435.31 38.205 52.591-61.724 20.123-38.205-52.591 61.824-20.084"/><path d="m-1571.4-362.71-38.208 52.589 61.723 20.124 38.208-52.589-61.823-20.087"/><path d="m-1547.8-290.03-61.822-20.087-0.065 64.921 61.822 20.087v-65.004"/><path d="m-1571.4-362.7-38.208 52.589-38.212-52.484 38.211-52.586 38.208 52.589"/><path d="m-1871.3-290.03 61.82-20.091-38.107-52.56-61.82 20.091 38.208 52.589"/><path d="m-1847.7-362.7 38.208 52.589 38.212-52.484-38.208-52.589-38.205 52.592"/><path d="m-1871.3-290.03 61.823-20.083 0.065 64.921-61.823 20.083v-65.004"/><path d="m-1771.3-127.64v-65.003l-61.764 20v65.003l61.822-20.087"/><path d="m-1833.1-172.55 61.822-20.087-38.107-52.56-61.822 20.087 38.208 52.589"/><path d="m-1771.3-127.64v-65.003l61.764 20v65.003l-61.823-20.087"/><path d="m-1585.9-172.56-61.822-20.087-0.065 64.921 61.822 20.087v-65.004"/><path d="m-1647.8-127.64v-65.003l-61.764 20 1e-4 65.003 61.822-20.087"/><path d="m-1586-172.55-61.822-20.087 38.107-52.56 61.822 20.087-38.208 52.589"/></g><g transform="translate(3938.1 -91.957)"><g fill="#053966"><path d="m-4747.2-2750.3-38.205 52.591v65.003l38.205-52.591z"/><path d="m-4847.1-2822.9-61.821 20.091-38.208 52.589 61.821-20.091z"/><path d="m-4785.4-2632.7-61.823-20.083-61.822 20.087 61.823 20.083z"/><path d="m-4747.2-2750.2-38.211-52.587-61.822-20.087 38.211 52.586z"/></g><g fill="#30860b"><path d="m-4885.4-2770.4 38.211 52.586 38.212-52.484-38.211-52.586-38.205 52.592"/><path d="m-4809-2770.4-38.205 52.591 61.724 20.123 38.205-52.591-61.824-20.084"/><path d="m-4785.4-2697.7-61.822-20.087-0.065 64.921 61.822 20.087v-65.004"/><path d="m-4847.2-2652.7v-65.003l-61.764 20v65.003l61.822-20.087"/><path d="m-4885.4-2770.4 38.205 52.591-61.724 20.123-38.205-52.591 61.824-20.084"/></g><path d="m-4947.2-2750.3v65.003l38.208 52.589v-65.003z" fill="#053966"/></g></g><g transform="rotate(-72 -1853.4 -2151.9)"><g transform="rotate(-72 -392.7 -1375.4)" fill="#30860b"><path d="m421.17-2218.3v-65.004l38.208-52.589v65.004z"/><path d="m459.34-2335.7v-65.004l38.208-52.589v65.004z"/><path d="m321.2-2526 38.211 52.586 38.212-52.484-38.211-52.586-38.205 52.592"/><path d="m397.61-2526-38.205 52.591 61.724 20.123 38.205-52.591-61.824-20.084"/><path d="m321.2-2526 38.205 52.591-61.724 20.123-38.205-52.591 61.824-20.084"/><path d="m197.66-2380.7 61.82-20.091-38.107-52.56-61.82 20.091 38.208 52.589"/><path d="m221.27-2453.3 38.208 52.589 38.212-52.484-38.208-52.589-38.205 52.592"/><path d="m197.65-2380.7 61.823-20.083 0.065 64.921-61.823 20.083v-65.004"/><path d="m297.65-2218.3v-65.003l-61.763 20v65.003l61.822-20.087"/><path d="m235.83-2263.2 61.822-20.087-38.107-52.56-61.822 20.087 38.208 52.589"/><path d="m297.64-2218.3v-65.003l61.764 20v65.003l-61.822-20.087"/><path d="m421.12-2453.3 38.208 52.589 38.212-52.484-38.208-52.589-38.205 52.592"/><path d="m421.17-2218.3 1e-4 -65.003-61.764 20v65.003l61.822-20.087"/><path d="m359.47-2198.2-61.822 20.087-61.822-20.087 61.822-20.087z"/></g><g transform="translate(2951 78.935)"><g fill="#053966"><path d="m-3955.6-2509-38.205 52.591v65.003l38.205-52.591z"/><path d="m-4055.4-2581.6-61.821 20.091-38.208 52.589 61.821-20.091z"/><path d="m-3993.8-2391.4-61.823-20.083-61.822 20.087 61.823 20.083z"/><path d="m-3955.6-2508.9-38.211-52.587-61.822-20.087 38.211 52.586z"/></g><g fill="#30860b"><path d="m-4093.7-2529.1 38.211 52.586 38.212-52.484-38.211-52.586-38.205 52.592"/><path d="m-4017.3-2529.1-38.205 52.591 61.724 20.123 38.205-52.591-61.824-20.084"/><path d="m-3993.8-2456.4-61.822-20.087-0.065 64.921 61.822 20.087v-65.004"/><path d="m-4055.6-2411.4v-65.003l-61.764 20v65.003l61.822-20.087"/><path d="m-4093.7-2529.1 38.205 52.591-61.724 20.123-38.205-52.591 61.824-20.084"/></g><path d="m-4155.6-2509v65.003l38.208 52.589v-65.003z" fill="#053966"/></g></g><g transform="rotate(72 -894.39 -3553.1)"><g transform="translate(-2483.8 -2636.9)" fill="#30860b"><path d="m1612.9-512.76 61.823-20.083 0.065 64.921-61.823 20.083v-65.004"/><path d="m1613-512.74-61.823-20.083-0.065 64.921 61.823 20.083v-65.004"/><path d="m1712.9-585.48-38.205 52.591v65.003l38.205-52.591z"/><path d="m1513-585.48 38.205 52.591v65.003l-38.205-52.591z"/><path d="m1751.1-703.07-38.205 52.591v65.003l38.205-52.591z"/><path d="m1474.9-703.07 38.205 52.591v65.003l-38.205-52.591z"/><path d="m1574.8-775.67 38.211 52.586 38.212-52.484-38.211-52.586-38.205 52.592"/><path d="m1651.2-775.67-38.205 52.591 61.724 20.123 38.205-52.591-61.824-20.084"/><path d="m1574.8-775.67 38.205 52.591-61.724 20.123-38.205-52.591 61.824-20.084"/><path d="m1674.7-703.07 38.211 52.586 38.212-52.484-38.211-52.586-38.205 52.592"/><path d="m1474.9-703.06 38.211 52.586 38.212-52.484-38.211-52.586-38.205 52.592"/></g><g transform="translate(3857.8 -96.852)"><g fill="#053966"><path d="m-4628.7-3190.5-38.205 52.591v65.003l38.205-52.591z"/><path d="m-4728.5-3263.2-61.821 20.091-38.208 52.589 61.821-20.091z"/><path d="m-4666.9-3072.9-61.823-20.083-61.822 20.087 61.823 20.083z"/><path d="m-4628.7-3190.5-38.211-52.587-61.822-20.087 38.211 52.586z"/></g><g fill="#30860b"><path d="m-4766.8-3210.6 38.211 52.586 38.212-52.484-38.211-52.586-38.205 52.592"/><path d="m-4690.4-3210.6-38.205 52.591 61.724 20.123 38.205-52.591-61.824-20.084"/><path d="m-4666.9-3137.9-61.822-20.087-0.065 64.921 61.822 20.087v-65.004"/><path d="m-4728.7-3093v-65.003l-61.764 20v65.003l61.822-20.087"/><path d="m-4766.8-3210.6 38.205 52.591-61.724 20.123-38.205-52.591 61.824-20.084"/></g><path d="m-4828.7-3190.6v65.003l38.208 52.589v-65.003z" fill="#053966"/></g></g><g><g transform="translate(-273.81 -3256.9)" fill="#30860b"><path d="m-1358.4-646.34 38.211 52.586 38.212-52.484-38.211-52.586-38.205 52.592"/><path d="m-1282-646.35-38.205 52.591 61.724 20.123 38.205-52.591-61.824-20.084"/><path d="m-1358.4-646.35 38.205 52.591-61.724 20.123-38.205-52.591 61.824-20.084"/><path d="m-1182.1-573.74-38.208 52.589 61.723 20.124 38.208-52.589-61.823-20.087"/><path d="m-1158.4-501.07-61.822-20.087-0.065 64.921 61.822 20.087v-65.004"/><path d="m-1182-573.74-38.208 52.589-38.212-52.484 38.211-52.586 38.208 52.589"/><path d="m-1481.9-501.06 61.82-20.091-38.107-52.56-61.82 20.091 38.208 52.589"/><path d="m-1458.3-573.74 38.208 52.589 38.212-52.484-38.208-52.589-38.205 52.592"/><path d="m-1481.9-501.07 61.823-20.083 0.065 64.921-61.823 20.083v-65.004"/><path d="m-1381.9-338.67v-65.003l-61.764 20v65.003l61.822-20.087"/><path d="m-1443.8-383.58 61.822-20.087-38.107-52.56-61.822 20.087 38.208 52.589"/><path d="m-1381.9-338.67v-65.003l61.764 20v65.003l-61.822-20.087"/><path d="m-1196.6-383.59-61.822-20.087-0.065 64.921 61.822 20.087v-65.004"/><path d="m-1258.4-338.67v-65.003l-61.764 20 1e-4 65.003 61.822-20.087"/><path d="m-1196.6-383.58-61.822-20.087 38.107-52.56 61.822 20.087-38.208 52.589"/></g><g transform="translate(2027.5 -238.44)"><g fill="#053966"><path d="m-3521.6-3539.8-38.205 52.591v65.003l38.205-52.591z"/><path d="m-3621.5-3612.4-61.821 20.091-38.208 52.589 61.821-20.091z"/><path d="m-3559.8-3422.2-61.823-20.083-61.822 20.087 61.823 20.083z"/><path d="m-3521.7-3539.8-38.211-52.587-61.822-20.087 38.211 52.586z"/></g><g fill="#30860b"><path d="m-3659.8-3559.9 38.211 52.586 38.212-52.484-38.211-52.586-38.205 52.592"/><path d="m-3583.4-3559.9-38.205 52.591 61.724 20.123 38.205-52.591-61.824-20.084"/><path d="m-3559.8-3487.2-61.822-20.087-0.065 64.921 61.822 20.087v-65.004"/><path d="m-3621.7-3442.3v-65.003l-61.764 20v65.003l61.822-20.087"/><path d="m-3659.8-3559.9 38.205 52.591-61.724 20.123-38.205-52.591 61.824-20.084"/></g><path d="m-3721.6-3539.9v65.003l38.208 52.589v-65.003z" fill="#053966"/></g></g><g transform="rotate(-36 -2820.7 -3283.8)"><g transform="translate(-1056.7 -2674)" fill="#30860b"><path d="m-1223.2-197.08 38.211 52.586 38.212-52.484-38.211-52.586-38.205 52.592"/><path d="m-1146.8-197.09-38.205 52.591 61.724 20.123 38.205-52.591-61.824-20.084"/><path d="m-1223.2-197.09 38.205 52.591-61.724 20.123-38.205-52.591 61.824-20.084"/><path d="m-1046.8-124.48-38.208 52.589 61.723 20.124 38.208-52.589-61.823-20.087"/><path d="m-1023.2-51.808-61.822-20.087-0.065 64.921 61.822 20.087v-65.004"/><path d="m-1046.8-124.48-38.208 52.589-38.212-52.484 38.211-52.586 38.208 52.589"/><path d="m-1346.7-51.802 61.82-20.091-38.107-52.56-61.82 20.091 38.208 52.589"/><path d="m-1323.1-124.48 38.208 52.589 38.212-52.484-38.208-52.589-38.205 52.592"/><path d="m-1346.7-51.81 61.823-20.083 0.065 64.921-61.823 20.083v-65.004"/><path d="m-1246.7 110.59v-65.003l-61.764 20v65.003l61.822-20.087"/><path d="m-1308.5 65.673 61.822-20.087-38.107-52.56-61.822 20.087 38.208 52.589"/><path d="m-1246.7 110.59v-65.003l61.764 20v65.003l-61.822-20.087"/><path d="m-1061.4 65.666-61.822-20.087-0.065 64.921 61.822 20.087v-65.004"/><path d="m-1123.2 110.59v-65.003l-61.764 20 1e-4 65.003 61.822-20.087"/><path d="m-1061.4 65.673-61.822-20.087 38.107-52.56 61.822 20.087-38.208 52.589"/></g><g transform="translate(1532.4 362.08)"><g fill="#053966"><path d="m-3674-3108-38.205 52.591v65.003l38.205-52.591z"/><path d="m-3773.9-3180.6-61.821 20.091-38.208 52.589 61.821-20.091z"/><path d="m-3712.2-2990.4-61.823-20.083-61.822 20.087 61.823 20.083z"/><path d="m-3674.1-3108-38.211-52.587-61.822-20.087 38.211 52.586z"/></g><g fill="#30860b"><path d="m-3812.2-3128.1 38.211 52.586 38.212-52.484-38.211-52.586-38.205 52.592"/><path d="m-3735.8-3128.1-38.205 52.591 61.724 20.123 38.205-52.591-61.824-20.084"/><path d="m-3712.2-3055.4-61.822-20.087-0.065 64.921 61.822 20.087v-65.004"/><path d="m-3774.1-3010.5v-65.003l-61.764 20v65.003l61.822-20.087"/><path d="m-3812.2-3128.1 38.205 52.591-61.724 20.123-38.205-52.591 61.824-20.084"/></g><path d="m-3874-3108.1v65.003l38.208 52.589v-65.003z" fill="#053966"/></g></g><g transform="rotate(-72 -2316.4 -3521.7)"><g transform="translate(-4e3 -3064.2)" fill="#30860b"><path d="m1696.3-41.619 61.823-20.083 0.065 64.921-61.823 20.083v-65.004"/><path d="m1696.4-41.594-61.823-20.083-0.065 64.921 61.823 20.083v-65.004"/><path d="m1796.4-114.33-38.205 52.591v65.003l38.205-52.591z"/><path d="m1596.5-114.33 38.205 52.591v65.003l-38.205-52.591z"/><path d="m1834.6-231.93-38.205 52.591v65.003l38.205-52.591z"/><path d="m1558.3-231.92 38.205 52.591v65.003l-38.205-52.591z"/><path d="m1658.2-304.53 38.211 52.586 38.212-52.484-38.211-52.586-38.205 52.592"/><path d="m1734.6-304.53-38.205 52.591 61.724 20.123 38.205-52.591-61.824-20.084"/><path d="m1658.2-304.53 38.205 52.591-61.724 20.123-38.205-52.591 61.824-20.084"/><path d="m1758.1-231.92 38.211 52.586 38.212-52.484-38.211-52.586-38.205 52.592"/><path d="m1558.3-231.92 38.211 52.586 38.212-52.484-38.211-52.586-38.205 52.592"/></g><g transform="translate(1809.1 173.55)"><g fill="#053966"><path d="m-4012.7-3417-38.205 52.591v65.003l38.205-52.591z"/><path d="m-4112.6-3489.7-61.821 20.091-38.208 52.589 61.821-20.091z"/><path d="m-4050.9-3299.4-61.823-20.083-61.822 20.087 61.823 20.083z"/><path d="m-4012.8-3417-38.211-52.587-61.822-20.087 38.211 52.586z"/></g><g fill="#30860b"><path d="m-4150.9-3437.1 38.211 52.586 38.212-52.484-38.211-52.586-38.205 52.592"/><path d="m-4074.5-3437.1-38.205 52.591 61.724 20.123 38.205-52.591-61.824-20.084"/><path d="m-4050.9-3364.4-61.822-20.087-0.065 64.921 61.822 20.087v-65.004"/><path d="m-4112.7-3319.5v-65.003l-61.764 20v65.003l61.822-20.087"/><path d="m-4150.9-3437.1 38.205 52.591-61.724 20.123-38.205-52.591 61.824-20.084"/></g><path d="m-4212.7-3417.1v65.003l38.208 52.589v-65.003z" fill="#053966"/></g></g><g transform="rotate(-36 -2012.1 -3805.1)"><g transform="translate(-2052 -750.98)" fill="#30860b"><path d="m143.55-2694.9v-65.004l38.208-52.589v65.004z"/><path d="m181.71-2812.2v-65.004l38.208-52.589v65.004z"/><path d="m43.573-3002.5 38.211 52.586 38.212-52.484-38.211-52.586-38.205 52.592"/><path d="m119.99-3002.5-38.205 52.591 61.724 20.123 38.205-52.591-61.824-20.084"/><path d="m43.579-3002.5 38.205 52.591-61.724 20.123-38.205-52.591 61.824-20.084"/><path d="m-79.967-2857.3 61.82-20.091-38.107-52.56-61.82 20.091 38.208 52.589"/><path d="m-56.358-2929.9 38.208 52.589 38.212-52.484-38.208-52.589-38.205 52.592"/><path d="m-79.97-2857.3 61.823-20.083 0.065 64.921-61.823 20.083v-65.004"/><path d="m20.028-2694.9v-65.003l-61.763 20v65.003l61.822-20.087"/><path d="m-41.797-2739.8 61.822-20.087-38.107-52.56-61.822 20.087 38.208 52.589"/><path d="m20.02-2694.9v-65.003l61.764 20v65.003l-61.822-20.087"/><path d="m143.5-2929.9 38.208 52.589 38.212-52.484-38.208-52.589-38.205 52.592"/><path d="m143.55-2694.9 1e-4 -65.003-61.764 20v65.003l61.822-20.087"/><path d="m81.841-2674.8-61.822 20.087-61.822-20.087 61.822-20.087z"/></g><g transform="translate(1351 -452.57)"><g fill="#053966"><path d="m-3221.1-3175.7-38.205 52.591v65.003l38.205-52.591z"/><path d="m-3320.9-3248.4-61.821 20.091-38.208 52.589 61.821-20.091z"/><path d="m-3259.3-3058.1-61.823-20.083-61.822 20.087 61.823 20.083z"/><path d="m-3221.1-3175.7-38.211-52.587-61.822-20.087 38.211 52.586z"/></g><g fill="#30860b"><path d="m-3359.3-3195.8 38.211 52.586 38.212-52.484-38.211-52.586-38.205 52.592"/><path d="m-3282.8-3195.8-38.205 52.591 61.724 20.123 38.205-52.591-61.824-20.084"/><path d="m-3259.3-3123.1-61.822-20.087-0.065 64.921 61.822 20.087v-65.004"/><path d="m-3321.1-3078.2v-65.003l-61.764 20v65.003l61.822-20.087"/><path d="m-3359.3-3195.8 38.205 52.591-61.724 20.123-38.205-52.591 61.824-20.084"/></g><path d="m-3421.1-3175.8v65.003l38.208 52.589v-65.003z" fill="#053966"/></g></g><g transform="rotate(36 -1213.7 -3857.8)"><g transform="translate(-3436.9 -1564.8)" fill="#30860b"><path d="m2180.9-1914.2v-65.004l-38.208-52.589v65.004z"/><path d="m2142.8-2031.5v-65.004l-38.208-52.589v65.004z"/><path d="m2280.9-2221.8-38.211 52.586-38.212-52.484 38.211-52.586 38.205 52.592"/><path d="m2204.5-2221.8 38.205 52.591-61.724 20.123-38.205-52.591 61.824-20.084"/><path d="m2280.9-2221.8-38.205 52.591 61.724 20.123 38.205-52.591-61.824-20.084"/><path d="m2404.5-2076.6-61.82-20.091 38.107-52.56 61.82 20.091-38.208 52.589"/><path d="m2380.8-2149.2-38.208 52.589-38.212-52.484 38.208-52.589 38.205 52.592"/><path d="m2404.5-2076.6-61.823-20.083-0.065 64.921 61.823 20.083v-65.004"/><path d="m2304.5-1914.2v-65.003l61.763 20v65.003l-61.822-20.087"/><path d="m2366.3-1959.1-61.822-20.087 38.107-52.56 61.822 20.087-38.208 52.589"/><path d="m2304.5-1914.2v-65.003l-61.764 20v65.003l61.822-20.087"/><path d="m2181-2149.2-38.208 52.589-38.212-52.484 38.208-52.589 38.205 52.592"/><path d="m2180.9-1914.2-1e-4 -65.003 61.764 20v65.003l-61.822-20.087"/><path d="m2242.6-1894.1 61.822 20.087 61.822-20.087-61.822-20.087z"/></g><g transform="translate(2799.9 195.94)"><g fill="#053966"><path d="m-3894.2-3857.3-38.205 52.591v65.003l38.205-52.591z"/><path d="m-3994-3929.9-61.821 20.091-38.208 52.589 61.821-20.091z"/><path d="m-3932.4-3739.7-61.823-20.083-61.822 20.087 61.823 20.083z"/><path d="m-3894.2-3857.3-38.211-52.587-61.822-20.087 38.211 52.586z"/></g><g fill="#30860b"><path d="m-4032.4-3877.4 38.211 52.586 38.212-52.484-38.211-52.586-38.205 52.592"/><path d="m-3955.9-3877.4-38.205 52.591 61.724 20.123 38.205-52.591-61.824-20.084"/><path d="m-3932.4-3804.7-61.822-20.087-0.065 64.921 61.822 20.087v-65.004"/><path d="m-3994.2-3759.8v-65.003l-61.764 20v65.003l61.822-20.087"/><path d="m-4032.4-3877.4 38.205 52.591-61.724 20.123-38.205-52.591 61.824-20.084"/></g><path d="m-4094.2-3857.4v65.003l38.208 52.589v-65.003z" fill="#053966"/></g></g></g></svg>
